<svg width="69" height="69" viewBox="0 0 69 69" fill="none" xmlns="http://www.w3.org/2000/svg">
<path fill-rule="evenodd" clip-rule="evenodd" d="M19.2081 15.434L34.3457 30.526L49.4377 15.3883L34.3001 0.296326L19.2081 15.434ZM19.2666 53.908L34.4043 69L49.4963 53.8624L34.3586 38.7704L19.2666 53.908ZM38.4747 34.6419L53.6123 49.7339L68.7043 34.5963L63.1996 29.1083L57.7116 34.6129L53.5832 30.4969L59.0712 24.9923L53.5667 19.5043L38.4747 34.6419ZM59.1 44.2293L49.467 34.6253L53.583 30.4969L63.216 40.1009L59.1 44.2293ZM0 34.7001L15.1376 49.7921L30.2296 34.6544L15.092 19.5625L9.60384 25.0672L15.1083 30.5551L10.9923 34.6835L5.48784 29.1957L0 34.7001ZM9.63315 44.3041L5.50471 40.1881L15.1087 30.5551L19.2371 34.6711L9.63315 44.3041Z" fill="#797979"/>
<path fill-rule="evenodd" clip-rule="evenodd" d="M19.2081 15.434L34.3457 30.526L49.4377 15.3883L34.3001 0.296326L19.2081 15.434ZM19.2666 53.908L34.4043 69L49.4963 53.8624L34.3586 38.7704L19.2666 53.908ZM38.4747 34.6419L53.6123 49.7339L68.7043 34.5963L63.1996 29.1083L57.7116 34.6129L53.5832 30.4969L59.0712 24.9923L53.5667 19.5043L38.4747 34.6419ZM59.1 44.2293L49.467 34.6253L53.583 30.4969L63.216 40.1009L59.1 44.2293ZM0 34.7001L15.1376 49.7921L30.2296 34.6544L15.092 19.5625L9.60384 25.0672L15.1083 30.5551L10.9923 34.6835L5.48784 29.1957L0 34.7001ZM9.63315 44.3041L5.50471 40.1881L15.1087 30.5551L19.2371 34.6711L9.63315 44.3041Z" fill="#0AAAE9"/>
</svg>
