<svg width="21" height="21" viewBox="0 0 21 21" fill="none" xmlns="http://www.w3.org/2000/svg">
<path d="M6.19057 16.28C6.19057 16.6234 6.46899 16.9018 6.81244 16.9018H11.9948C13.6354 16.9018 14.9003 16.2197 15.7425 15.182C16.5724 14.1594 16.9698 12.8222 16.9698 11.5122C16.9698 10.2022 16.5724 8.86502 15.7425 7.84253C14.9003 6.80475 13.6354 6.12262 11.9948 6.12262H6.65545L8.7032 4.07484C8.94607 3.83198 8.94607 3.43823 8.7032 3.19537C8.46037 2.95252 8.06662 2.95252 7.82376 3.19537L4.71437 6.30476C4.47151 6.54762 4.47151 6.94138 4.71437 7.18423L7.82376 10.2936C8.06662 10.5365 8.46037 10.5365 8.7032 10.2936C8.94607 10.0507 8.94607 9.65704 8.7032 9.41418L6.65545 7.36638H11.9948C13.2563 7.36638 14.1679 7.87618 14.7768 8.6263C15.3979 9.39171 15.726 10.4384 15.726 11.5122C15.726 12.5861 15.3979 13.6328 14.7768 14.3982C14.1679 15.1483 13.2563 15.6581 11.9948 15.6581H6.81244C6.46899 15.6581 6.19057 15.9365 6.19057 16.28Z" fill="#212121"/>
</svg>
