<svg width="54" height="26" viewBox="0 0 54 26" fill="none" xmlns="http://www.w3.org/2000/svg">
<path d="M10.6878 3.75487H7.0151V25H3.77559V3.75487H0.12173V1.00506H10.6878V3.75487ZM25.0019 25H21.8754L20.9902 20.2537H15.9237L15.0385 25H11.9497L17.1291 1.00506H19.7848L25.0019 25ZM20.557 17.8241L18.4664 6.44818H18.391L16.3946 17.8241H20.557ZM41.0864 25H37.9599L37.0747 20.2537H32.0083L31.123 25H28.0342L33.2137 1.00506H35.8693L41.0864 25ZM36.6415 17.8241L34.5509 6.44818H34.4756L32.4791 17.8241H36.6415ZM53.8372 24.5668C52.8704 25.0314 51.9036 25.2637 50.9368 25.2637C49.0031 25.2637 47.3268 24.5166 45.908 23.0224C44.5017 21.5282 43.7985 18.408 43.7985 13.6617C43.7985 8.51368 44.5017 5.04816 45.908 3.26518C47.3268 1.4822 49.0408 0.590706 51.0498 0.590706C51.8031 0.590706 52.7323 0.716268 53.8372 0.967392V3.90555C53.109 3.61676 52.4247 3.47236 51.7843 3.47236C50.5287 3.47236 49.4551 4.11273 48.5636 5.39346C47.6721 6.66164 47.2264 9.17288 47.2264 12.9272C47.2264 15.1622 47.3206 16.9138 47.5089 18.182C47.7098 19.4376 48.1618 20.4421 48.865 21.1955C49.5681 21.9363 50.4533 22.3067 51.5206 22.3067C52.1484 22.3067 52.9206 22.1121 53.8372 21.7228V24.5668Z" fill="black"/>
</svg>
